<svg width="12" height="12" viewBox="0 0 12 12" fill="none" xmlns="http://www.w3.org/2000/svg">
<path d="M11.4095 6C11.4103 5.81367 11.3742 5.62903 11.3032 5.45674C11.2323 5.28444 11.1279 5.1279 10.9961 4.99614C10.8644 4.86438 10.7078 4.76002 10.5355 4.68907C10.3633 4.61811 10.1786 4.58198 9.99228 4.58274L7.40728 4.59272L7.41726 2.00772C7.41726 1.63184 7.26794 1.27135 7.00215 1.00556C6.73637 0.739774 6.37588 0.590455 6 0.590455C5.62412 0.590455 5.26363 0.739774 4.99785 1.00556C4.73206 1.27135 4.58274 1.63184 4.58274 2.00772L4.59272 4.59272L2.00772 4.58274C1.82139 4.58197 1.63675 4.61811 1.46445 4.68907C1.29216 4.76002 1.13562 4.86438 1.00386 4.99614C0.872101 5.1279 0.767735 5.28444 0.696782 5.45674C0.625829 5.62903 0.589692 5.81367 0.590455 6C0.589692 6.18633 0.625829 6.37097 0.696783 6.54326C0.767735 6.71556 0.872101 6.8721 1.00386 7.00386C1.13562 7.13562 1.29216 7.23998 1.46445 7.31093C1.63675 7.38189 1.82139 7.41802 2.00772 7.41726L4.59272 7.40728L4.58274 9.99228C4.58198 10.1786 4.61811 10.3633 4.68907 10.5355C4.76002 10.7078 4.86438 10.8644 4.99614 10.9961C5.1279 11.1279 5.28444 11.2323 5.45674 11.3032C5.62903 11.3742 5.81367 11.4103 6 11.4095C6.18633 11.4103 6.37097 11.3742 6.54326 11.3032C6.71556 11.2323 6.8721 11.1279 7.00386 10.9961C7.13562 10.8644 7.23998 10.7078 7.31093 10.5355C7.38189 10.3633 7.41803 10.1786 7.41726 9.99228L7.40728 7.40728L9.99228 7.41726C10.1786 7.41802 10.3633 7.38189 10.5355 7.31093C10.7078 7.23998 10.8644 7.13562 10.9961 7.00386C11.1279 6.8721 11.2323 6.71556 11.3032 6.54326C11.3742 6.37097 11.4103 6.18633 11.4095 6Z" fill="white"/>
</svg>
