<svg width="92" height="23" viewBox="0 0 92 23" fill="none" xmlns="http://www.w3.org/2000/svg">
<path d="M28.472 10.432L28.104 11.712H30.776L30.408 10.432C30.2373 9.87733 30.072 9.30667 29.912 8.72C29.7627 8.13333 29.6133 7.552 29.464 6.976H29.4C29.2613 7.56267 29.112 8.14933 28.952 8.736C28.8027 9.312 28.6427 9.87733 28.472 10.432ZM24.968 16L28.376 5.536H30.552L33.96 16H32.008L31.192 13.168H27.672L26.856 16H24.968ZM35.0899 19.104V8.144H36.6099L36.7379 8.976H36.8019C37.1325 8.69867 37.5005 8.45867 37.9059 8.256C38.3219 8.05333 38.7432 7.952 39.1699 7.952C40.1512 7.952 40.9085 8.31467 41.4419 9.04C41.9859 9.76533 42.2579 10.736 42.2579 11.952C42.2579 12.848 42.0979 13.616 41.7779 14.256C41.4579 14.8853 41.0419 15.3653 40.5299 15.696C40.0285 16.0267 39.4845 16.192 38.8979 16.192C38.5565 16.192 38.2152 16.1173 37.8739 15.968C37.5325 15.808 37.2019 15.5947 36.8819 15.328L36.9299 16.64V19.104H35.0899ZM38.5139 14.672C39.0365 14.672 39.4739 14.4427 39.8259 13.984C40.1779 13.5253 40.3539 12.8533 40.3539 11.968C40.3539 11.1787 40.2205 10.5653 39.9539 10.128C39.6872 9.69067 39.2552 9.472 38.6579 9.472C38.1032 9.472 37.5272 9.76533 36.9299 10.352V14.016C37.2179 14.2507 37.4952 14.4213 37.7619 14.528C38.0285 14.624 38.2792 14.672 38.5139 14.672ZM44.1211 19.104V8.144H45.6411L45.7691 8.976H45.8331C46.1638 8.69867 46.5318 8.45867 46.9371 8.256C47.3531 8.05333 47.7745 7.952 48.2011 7.952C49.1825 7.952 49.9398 8.31467 50.4731 9.04C51.0171 9.76533 51.2891 10.736 51.2891 11.952C51.2891 12.848 51.1291 13.616 50.8091 14.256C50.4891 14.8853 50.0731 15.3653 49.5611 15.696C49.0598 16.0267 48.5158 16.192 47.9291 16.192C47.5878 16.192 47.2465 16.1173 46.9051 15.968C46.5638 15.808 46.2331 15.5947 45.9131 15.328L45.9611 16.64V19.104H44.1211ZM47.5451 14.672C48.0678 14.672 48.5051 14.4427 48.8571 13.984C49.2091 13.5253 49.3851 12.8533 49.3851 11.968C49.3851 11.1787 49.2518 10.5653 48.9851 10.128C48.7185 9.69067 48.2865 9.472 47.6891 9.472C47.1345 9.472 46.5585 9.76533 45.9611 10.352V14.016C46.2491 14.2507 46.5265 14.4213 46.7931 14.528C47.0598 14.624 47.3105 14.672 47.5451 14.672ZM53.1524 16V8.144H54.6724L54.8004 9.536H54.8644C55.1417 9.024 55.4777 8.63467 55.8724 8.368C56.267 8.09067 56.6724 7.952 57.0884 7.952C57.4617 7.952 57.7604 8.00533 57.9844 8.112L57.6644 9.712C57.5257 9.66933 57.3977 9.63733 57.2804 9.616C57.163 9.59467 57.019 9.584 56.8484 9.584C56.539 9.584 56.2137 9.70667 55.8724 9.952C55.531 10.1867 55.2377 10.6027 54.9924 11.2V16H53.1524ZM62.1809 16.192C61.5302 16.192 60.9222 16.032 60.3569 15.712C59.7915 15.3813 59.3329 14.912 58.9809 14.304C58.6289 13.6853 58.4529 12.944 58.4529 12.08C58.4529 11.2053 58.6289 10.464 58.9809 9.856C59.3329 9.23733 59.7915 8.768 60.3569 8.448C60.9222 8.11733 61.5302 7.952 62.1809 7.952C62.8422 7.952 63.4555 8.11733 64.0209 8.448C64.5862 8.768 65.0449 9.23733 65.3969 9.856C65.7489 10.464 65.9249 11.2053 65.9249 12.08C65.9249 12.944 65.7489 13.6853 65.3969 14.304C65.0449 14.912 64.5862 15.3813 64.0209 15.712C63.4555 16.032 62.8422 16.192 62.1809 16.192ZM62.1809 14.688C62.7569 14.688 63.2102 14.448 63.5409 13.968C63.8715 13.488 64.0369 12.8587 64.0369 12.08C64.0369 11.2907 63.8715 10.656 63.5409 10.176C63.2102 9.696 62.7569 9.456 62.1809 9.456C61.6049 9.456 61.1515 9.696 60.8209 10.176C60.5009 10.656 60.3409 11.2907 60.3409 12.08C60.3409 12.8587 60.5009 13.488 60.8209 13.968C61.1515 14.448 61.6049 14.688 62.1809 14.688ZM69.4124 16L66.6764 8.144H68.5484L69.7964 12.224C69.903 12.608 70.0097 12.9973 70.1164 13.392C70.2337 13.7867 70.3457 14.1867 70.4524 14.592H70.5164C70.6337 14.1867 70.7457 13.7867 70.8524 13.392C70.9697 12.9973 71.0817 12.608 71.1884 12.224L72.4364 8.144H74.2124L71.5404 16H69.4124ZM78.8405 16.192C78.1152 16.192 77.4592 16.032 76.8725 15.712C76.2858 15.3813 75.8218 14.912 75.4805 14.304C75.1392 13.6853 74.9685 12.944 74.9685 12.08C74.9685 11.2267 75.1392 10.4907 75.4805 9.872C75.8325 9.25333 76.2858 8.77867 76.8405 8.448C77.3952 8.11733 77.9765 7.952 78.5845 7.952C79.2992 7.952 79.8965 8.112 80.3765 8.432C80.8565 8.74133 81.2192 9.17867 81.4645 9.744C81.7098 10.2987 81.8325 10.944 81.8325 11.68C81.8325 12.064 81.8058 12.3627 81.7525 12.576H76.7605C76.8458 13.2693 77.0965 13.808 77.5125 14.192C77.9285 14.576 78.4512 14.768 79.0805 14.768C79.4218 14.768 79.7365 14.72 80.0245 14.624C80.3232 14.5173 80.6165 14.3733 80.9045 14.192L81.5285 15.344C81.1552 15.5893 80.7392 15.792 80.2805 15.952C79.8218 16.112 79.3418 16.192 78.8405 16.192ZM76.7445 11.328H80.2325C80.2325 10.72 80.0992 10.2453 79.8325 9.904C79.5658 9.552 79.1658 9.376 78.6325 9.376C78.1738 9.376 77.7632 9.54667 77.4005 9.888C77.0485 10.2187 76.8298 10.6987 76.7445 11.328ZM86.3419 16.192C85.3605 16.192 84.5765 15.8293 83.9899 15.104C83.4032 14.3787 83.1099 13.3707 83.1099 12.08C83.1099 11.2267 83.2645 10.4907 83.5739 9.872C83.8939 9.25333 84.3099 8.77867 84.8219 8.448C85.3339 8.11733 85.8725 7.952 86.4379 7.952C86.8859 7.952 87.2645 8.032 87.5739 8.192C87.8939 8.34133 88.2032 8.54933 88.5019 8.816L88.4379 7.552V4.704H90.2779V16H88.7579L88.6299 15.152H88.5659C88.2779 15.44 87.9419 15.6853 87.5579 15.888C87.1739 16.0907 86.7685 16.192 86.3419 16.192ZM86.7899 14.672C87.3765 14.672 87.9259 14.3787 88.4379 13.792V10.128C88.1712 9.88267 87.9045 9.712 87.6379 9.616C87.3712 9.52 87.1045 9.472 86.8379 9.472C86.3365 9.472 85.9045 9.70133 85.5419 10.16C85.1899 10.608 85.0139 11.2427 85.0139 12.064C85.0139 12.9067 85.1685 13.552 85.4779 14C85.7872 14.448 86.2245 14.672 86.7899 14.672Z" fill="#A3BD42"/>
<g filter="url(#filter0_d_1128_34659)">
<circle cx="10" cy="11" r="7" fill="#A3BD42"/>
</g>
<path d="M7 11.1667L8.88571 13L13 9" stroke="white" stroke-width="1.5" stroke-linecap="round"/>
<defs>
<filter id="filter0_d_1128_34659" x="0" y="1" width="22" height="22" filterUnits="userSpaceOnUse" color-interpolation-filters="sRGB">
<feFlood flood-opacity="0" result="BackgroundImageFix"/>
<feColorMatrix in="SourceAlpha" type="matrix" values="0 0 0 0 0 0 0 0 0 0 0 0 0 0 0 0 0 0 127 0" result="hardAlpha"/>
<feOffset dx="1" dy="1"/>
<feGaussianBlur stdDeviation="2"/>
<feComposite in2="hardAlpha" operator="out"/>
<feColorMatrix type="matrix" values="0 0 0 0 0.254902 0 0 0 0 0.854902 0 0 0 0 0.45098 0 0 0 0.3 0"/>
<feBlend mode="normal" in2="BackgroundImageFix" result="effect1_dropShadow_1128_34659"/>
<feBlend mode="normal" in="SourceGraphic" in2="effect1_dropShadow_1128_34659" result="shape"/>
</filter>
</defs>
</svg>
