<svg width="83" height="20" viewBox="0 0 83 20" fill="none" xmlns="http://www.w3.org/2000/svg">
<path d="M25.472 10.432L25.104 11.712H27.776L27.408 10.432C27.2373 9.87733 27.072 9.30667 26.912 8.72C26.7627 8.13333 26.6133 7.552 26.464 6.976H26.4C26.2613 7.56267 26.112 8.14933 25.952 8.736C25.8027 9.312 25.6427 9.87733 25.472 10.432ZM21.968 16L25.376 5.536H27.552L30.96 16H29.008L28.192 13.168H24.672L23.856 16H21.968ZM32.0899 16V8.144H33.6099L33.7379 9.536H33.8019C34.0792 9.024 34.4152 8.63467 34.8099 8.368C35.2045 8.09067 35.6099 7.952 36.0259 7.952C36.3992 7.952 36.6979 8.00533 36.9219 8.112L36.6019 9.712C36.4632 9.66933 36.3352 9.63733 36.2179 9.616C36.1005 9.59467 35.9565 9.584 35.7859 9.584C35.4765 9.584 35.1512 9.70667 34.8099 9.952C34.4685 10.1867 34.1752 10.6027 33.9299 11.2V16H32.0899ZM41.1824 16.192C40.4677 16.192 39.8224 16.032 39.2464 15.712C38.681 15.3813 38.2277 14.912 37.8864 14.304C37.5557 13.6853 37.3904 12.944 37.3904 12.08C37.3904 11.2053 37.5717 10.464 37.9344 9.856C38.297 9.23733 38.777 8.768 39.3744 8.448C39.9824 8.11733 40.633 7.952 41.3264 7.952C41.8277 7.952 42.265 8.03733 42.6384 8.208C43.0117 8.37867 43.3424 8.58667 43.6304 8.832L42.7344 10.032C42.5317 9.85067 42.3237 9.712 42.1104 9.616C41.897 9.50933 41.6677 9.456 41.4224 9.456C40.793 9.456 40.2757 9.696 39.8704 10.176C39.4757 10.656 39.2784 11.2907 39.2784 12.08C39.2784 12.8587 39.4704 13.488 39.8544 13.968C40.249 14.448 40.7557 14.688 41.3744 14.688C41.6837 14.688 41.9717 14.624 42.2384 14.496C42.5157 14.3573 42.7664 14.1973 42.9904 14.016L43.7424 15.232C43.3797 15.552 42.9744 15.792 42.5264 15.952C42.0784 16.112 41.6304 16.192 41.1824 16.192ZM45.293 16V4.704H47.133V7.616L47.069 9.136C47.3997 8.82667 47.7677 8.55467 48.173 8.32C48.5783 8.07467 49.0477 7.952 49.581 7.952C50.4237 7.952 51.037 8.224 51.421 8.768C51.805 9.312 51.997 10.08 51.997 11.072V16H50.157V11.312C50.157 10.6613 50.061 10.2027 49.869 9.936C49.677 9.66933 49.3623 9.536 48.925 9.536C48.5837 9.536 48.2797 9.62133 48.013 9.792C47.757 9.952 47.4637 10.192 47.133 10.512V16H45.293ZM54.2149 16V8.144H56.0549V16H54.2149ZM55.1429 6.768C54.8122 6.768 54.5455 6.672 54.3429 6.48C54.1402 6.288 54.0389 6.032 54.0389 5.712C54.0389 5.40267 54.1402 5.152 54.3429 4.96C54.5455 4.768 54.8122 4.672 55.1429 4.672C55.4735 4.672 55.7402 4.768 55.9429 4.96C56.1455 5.152 56.2469 5.40267 56.2469 5.712C56.2469 6.032 56.1455 6.288 55.9429 6.48C55.7402 6.672 55.4735 6.768 55.1429 6.768ZM60.1624 16L57.4264 8.144H59.2984L60.5464 12.224C60.653 12.608 60.7597 12.9973 60.8664 13.392C60.9837 13.7867 61.0957 14.1867 61.2024 14.592H61.2664C61.3837 14.1867 61.4957 13.7867 61.6024 13.392C61.7197 12.9973 61.8317 12.608 61.9384 12.224L63.1864 8.144H64.9624L62.2904 16H60.1624ZM69.5905 16.192C68.8652 16.192 68.2092 16.032 67.6225 15.712C67.0358 15.3813 66.5718 14.912 66.2305 14.304C65.8892 13.6853 65.7185 12.944 65.7185 12.08C65.7185 11.2267 65.8892 10.4907 66.2305 9.872C66.5825 9.25333 67.0358 8.77867 67.5905 8.448C68.1452 8.11733 68.7265 7.952 69.3345 7.952C70.0492 7.952 70.6465 8.112 71.1265 8.432C71.6065 8.74133 71.9692 9.17867 72.2145 9.744C72.4598 10.2987 72.5825 10.944 72.5825 11.68C72.5825 12.064 72.5558 12.3627 72.5025 12.576H67.5105C67.5958 13.2693 67.8465 13.808 68.2625 14.192C68.6785 14.576 69.2012 14.768 69.8305 14.768C70.1718 14.768 70.4865 14.72 70.7745 14.624C71.0732 14.5173 71.3665 14.3733 71.6545 14.192L72.2785 15.344C71.9052 15.5893 71.4892 15.792 71.0305 15.952C70.5718 16.112 70.0918 16.192 69.5905 16.192ZM67.4945 11.328H70.9825C70.9825 10.72 70.8492 10.2453 70.5825 9.904C70.3158 9.552 69.9158 9.376 69.3825 9.376C68.9238 9.376 68.5132 9.54667 68.1505 9.888C67.7985 10.2187 67.5798 10.6987 67.4945 11.328ZM77.0919 16.192C76.1105 16.192 75.3265 15.8293 74.7399 15.104C74.1532 14.3787 73.8599 13.3707 73.8599 12.08C73.8599 11.2267 74.0145 10.4907 74.3239 9.872C74.6439 9.25333 75.0599 8.77867 75.5719 8.448C76.0839 8.11733 76.6225 7.952 77.1879 7.952C77.6359 7.952 78.0145 8.032 78.3239 8.192C78.6439 8.34133 78.9532 8.54933 79.2519 8.816L79.1879 7.552V4.704H81.0279V16H79.5079L79.3799 15.152H79.3159C79.0279 15.44 78.6919 15.6853 78.3079 15.888C77.9239 16.0907 77.5185 16.192 77.0919 16.192ZM77.5399 14.672C78.1265 14.672 78.6759 14.3787 79.1879 13.792V10.128C78.9212 9.88267 78.6545 9.712 78.3879 9.616C78.1212 9.52 77.8545 9.472 77.5879 9.472C77.0865 9.472 76.6545 9.70133 76.2919 10.16C75.9399 10.608 75.7639 11.2427 75.7639 12.064C75.7639 12.9067 75.9185 13.552 76.2279 14C76.5372 14.448 76.9745 14.672 77.5399 14.672Z" fill="#667095"/>
<path d="M1.55556 17C1.12778 17 0.761444 16.8478 0.456555 16.5434C0.152185 16.2386 0 15.8722 0 15.4444V5.72222C0 5.52778 0.0324074 5.35278 0.0972222 5.19722C0.162037 5.04167 0.246296 4.89259 0.35 4.75L1.43889 3.42778C1.54259 3.28519 1.67222 3.17811 1.82778 3.10656C1.98333 3.03552 2.15185 3 2.33333 3H11.6667C11.8481 3 12.0167 3.03552 12.1722 3.10656C12.3278 3.17811 12.4574 3.28519 12.5611 3.42778L13.65 4.75C13.7537 4.89259 13.838 5.04167 13.9028 5.19722C13.9676 5.35278 14 5.52778 14 5.72222V15.4444C14 15.8722 13.8478 16.2386 13.5434 16.5434C13.2386 16.8478 12.8722 17 12.4444 17H1.55556ZM1.86667 5.33333H12.1333L11.4722 4.55556H2.52778L1.86667 5.33333ZM1.55556 15.4444H12.4444V6.88889H1.55556V15.4444ZM7 14.3361C7.1037 14.3361 7.20093 14.3198 7.29167 14.2871C7.38241 14.255 7.46667 14.2 7.54444 14.1222L9.56667 12.1C9.70926 11.9574 9.78056 11.7759 9.78056 11.5556C9.78056 11.3352 9.70926 11.1537 9.56667 11.0111C9.42407 10.8685 9.24259 10.7972 9.02222 10.7972C8.80185 10.7972 8.62037 10.8685 8.47778 11.0111L7.77778 11.7111V9.22222C7.77778 9.00185 7.70337 8.817 7.55456 8.66767C7.40522 8.51885 7.22037 8.44444 7 8.44444C6.77963 8.44444 6.59504 8.51885 6.44622 8.66767C6.29689 8.817 6.22222 9.00185 6.22222 9.22222V11.7111L5.52222 11.0111C5.37963 10.8685 5.19815 10.7972 4.97778 10.7972C4.75741 10.7972 4.57593 10.8685 4.43333 11.0111C4.29074 11.1537 4.21944 11.3352 4.21944 11.5556C4.21944 11.7759 4.29074 11.9574 4.43333 12.1L6.45556 14.1222C6.53333 14.2 6.61759 14.255 6.70833 14.2871C6.79907 14.3198 6.8963 14.3361 7 14.3361Z" fill="#667095"/>
</svg>
