<svg width="15" height="15" viewBox="0 0 10 12" fill="none" xmlns="http://www.w3.org/2000/svg">
<path d="M4 8.86667C2.66667 8.6 1.66667 7.4 1.66667 6C1.66667 5 2.13333 4.2 2.86667 3.66667L1.53333 2.53333C0.6 3.33333 -3.23464e-07 4.6 -2.62268e-07 6C-1.60275e-07 8.33333 1.73333 10.2667 4 10.6L4 12L6.66667 9.66667L4 7.33333L4 8.86667ZM2.66667 2.33333L5.33333 4.66667L5.33333 3.13333C6.66667 3.46667 7.66667 4.6 7.66667 6C7.66667 7 7.2 7.8 6.46667 8.33333L7.73333 9.46667C8.73333 8.66667 9.33333 7.4 9.33333 6C9.33333 3.66667 7.6 1.73333 5.33333 1.4L5.33333 -2.33127e-07L2.66667 2.33333Z" fill="white"/>
</svg>
