<svg width="20" height="20" viewBox="0 0 16 20" fill="#727B8E" xmlns="http://www.w3.org/2000/svg">
<path d="M8 14.85C8.28333 14.85 8.521 14.754 8.713 14.562C8.90433 14.3707 9 14.1333 9 13.85V9.85C9 9.56667 8.90433 9.329 8.713 9.137C8.521 8.94567 8.28333 8.85 8 8.85C7.71667 8.85 7.47933 8.94567 7.288 9.137C7.096 9.329 7 9.56667 7 9.85V13.85C7 14.1333 7.096 14.3707 7.288 14.562C7.47933 14.754 7.71667 14.85 8 14.85ZM8 6.85C8.28333 6.85 8.521 6.754 8.713 6.562C8.90433 6.37067 9 6.13333 9 5.85C9 5.56667 8.90433 5.329 8.713 5.137C8.521 4.94567 8.28333 4.85 8 4.85C7.71667 4.85 7.47933 4.94567 7.288 5.137C7.096 5.329 7 5.56667 7 5.85C7 6.13333 7.096 6.37067 7.288 6.562C7.47933 6.754 7.71667 6.85 8 6.85ZM8 19.775H7.75C7.66667 19.775 7.59167 19.7583 7.525 19.725C5.34167 19.0417 3.54167 17.6873 2.125 15.662C0.708333 13.6373 0 11.4 0 8.95V4.225C0 3.80833 0.121 3.43333 0.363 3.1C0.604333 2.76667 0.916667 2.525 1.3 2.375L7.3 0.125C7.53333 0.0416667 7.76667 0 8 0C8.23333 0 8.46667 0.0416667 8.7 0.125L14.7 2.375C15.0833 2.525 15.396 2.76667 15.638 3.1C15.8793 3.43333 16 3.80833 16 4.225V8.95C16 11.4 15.2917 13.6373 13.875 15.662C12.4583 17.6873 10.6583 19.0417 8.475 19.725C8.39167 19.7583 8.23333 19.775 8 19.775ZM8 17.75C9.73333 17.2 11.1667 16.1 12.3 14.45C13.4333 12.8 14 10.9667 14 8.95V4.225L8 1.975L2 4.225V8.95C2 10.9667 2.56667 12.8 3.7 14.45C4.83333 16.1 6.26667 17.2 8 17.75Z" />
</svg>
