<svg width="14" height="14" viewBox="0 0 14 14" fill="none" xmlns="http://www.w3.org/2000/svg">
<path d="M4.63751 4.54972H1.48718C1.30151 4.54972 1.12345 4.47597 0.992156 4.34471C0.860867 4.21344 0.787109 4.0354 0.787109 3.84976V0.699957C0.787109 0.514317 0.860867 0.33628 0.992156 0.205013C1.12345 0.0737452 1.30151 0 1.48718 0C1.67285 0 1.85092 0.0737452 1.98221 0.205013C2.1135 0.33628 2.18726 0.514317 2.18726 0.699957V3.14981H4.63751C4.82318 3.14981 5.00125 3.22355 5.13254 3.35482C5.26382 3.48609 5.33758 3.66412 5.33758 3.84976C5.33758 4.0354 5.26382 4.21344 5.13254 4.34471C5.00125 4.47597 4.82318 4.54972 4.63751 4.54972Z" fill="#0092DB"/>
<path d="M13.3027 7.69857C13.1171 7.69857 12.939 7.62483 12.8077 7.49356C12.6764 7.36229 12.6027 7.18425 12.6027 6.99861C12.6032 5.76637 12.1969 4.5684 11.4469 3.5906C10.6969 2.6128 9.64506 1.90985 8.45462 1.59083C7.26419 1.27182 6.00173 1.35457 4.86314 1.82625C3.72455 2.29792 2.77351 3.13216 2.15758 4.19949C2.06456 4.36016 1.91151 4.4773 1.73211 4.52515C1.5527 4.573 1.36163 4.54763 1.20093 4.45462C1.04023 4.36162 0.923071 4.20859 0.875216 4.02922C0.827361 3.84984 0.852735 3.6588 0.945756 3.49813C1.71601 2.16418 2.90504 1.12167 4.32838 0.532334C5.75171 -0.0570008 7.32979 -0.160215 8.81778 0.238703C10.3058 0.637621 11.6205 1.51637 12.558 2.73863C13.4955 3.96088 14.0034 5.45831 14.0028 6.99861C14.0028 7.18425 13.9291 7.36229 13.7978 7.49356C13.6665 7.62483 13.4884 7.69857 13.3027 7.69857ZM12.5152 13.9982C12.3295 13.9982 12.1514 13.9244 12.0201 13.7932C11.8888 13.6619 11.8151 13.4839 11.8151 13.2982V10.8484H9.36483C9.17916 10.8484 9.00109 10.7746 8.86981 10.6434C8.73852 10.5121 8.66476 10.3341 8.66476 10.1484C8.66476 9.96278 8.73852 9.78474 8.86981 9.65348C9.00109 9.52221 9.17916 9.44846 9.36483 9.44846H12.5152C12.7008 9.44846 12.8789 9.52221 13.0102 9.65348C13.1415 9.78474 13.2152 9.96278 13.2152 10.1484V13.2982C13.2152 13.4839 13.1415 13.6619 13.0102 13.7932C12.8789 13.9244 12.7008 13.9982 12.5152 13.9982Z" fill="#0092DB"/>
<path d="M7.00073 14.0003C5.1447 13.9981 3.36533 13.2599 2.05292 11.9477C0.740512 10.6355 0.00222323 8.85646 0 7.00074C0 6.8151 0.0737574 6.63706 0.205047 6.50579C0.336336 6.37453 0.514402 6.30078 0.700073 6.30078C0.885744 6.30078 1.06381 6.37453 1.1951 6.50579C1.32639 6.63706 1.40015 6.8151 1.40015 7.00074C1.39961 8.23299 1.80588 9.43096 2.5559 10.4088C3.30592 11.3866 4.35776 12.0895 5.54819 12.4085C6.73862 12.7275 8.00109 12.6448 9.13968 12.1731C10.2783 11.7014 11.2293 10.8672 11.8452 9.79987C11.8913 9.72031 11.9526 9.6506 12.0256 9.59472C12.0986 9.53885 12.1819 9.49789 12.2707 9.4742C12.3595 9.45051 12.4522 9.44455 12.5433 9.45665C12.6344 9.46875 12.7223 9.49868 12.8019 9.54473C12.8815 9.59078 12.9512 9.65205 13.0071 9.72504C13.0629 9.79804 13.1039 9.88132 13.1276 9.97014C13.1513 10.059 13.1573 10.1516 13.1452 10.2427C13.1331 10.3338 13.1031 10.4217 13.0571 10.5012C12.4413 11.5627 11.5582 12.4443 10.4956 13.0582C9.43296 13.6722 8.22799 13.997 7.00073 14.0003Z" fill="#0092DB"/>
</svg>
