<svg width="97" height="20" viewBox="0 0 97 20" fill="none" xmlns="http://www.w3.org/2000/svg">
<path d="M23.328 16V5.536H26.624C27.4027 5.536 28.096 5.63733 28.704 5.84C29.312 6.04267 29.792 6.37867 30.144 6.848C30.496 7.31733 30.672 7.95733 30.672 8.768C30.672 9.536 30.496 10.1707 30.144 10.672C29.792 11.1733 29.3173 11.5467 28.72 11.792C28.1227 12.0373 27.4453 12.16 26.688 12.16H25.184V16H23.328ZM25.184 10.672H26.544C28.08 10.672 28.848 10.0373 28.848 8.768C28.848 8.10667 28.6453 7.65333 28.24 7.408C27.8453 7.152 27.2587 7.024 26.48 7.024H25.184V10.672ZM32.4805 16V8.144H34.0005L34.1285 9.536H34.1925C34.4698 9.024 34.8058 8.63467 35.2005 8.368C35.5952 8.09067 36.0005 7.952 36.4165 7.952C36.7898 7.952 37.0885 8.00533 37.3125 8.112L36.9925 9.712C36.8538 9.66933 36.7258 9.63733 36.6085 9.616C36.4912 9.59467 36.3472 9.584 36.1765 9.584C35.8672 9.584 35.5418 9.70667 35.2005 9.952C34.8592 10.1867 34.5658 10.6027 34.3205 11.2V16H32.4805ZM41.509 16.192C40.8583 16.192 40.2503 16.032 39.685 15.712C39.1197 15.3813 38.661 14.912 38.309 14.304C37.957 13.6853 37.781 12.944 37.781 12.08C37.781 11.2053 37.957 10.464 38.309 9.856C38.661 9.23733 39.1197 8.768 39.685 8.448C40.2503 8.11733 40.8583 7.952 41.509 7.952C42.1703 7.952 42.7837 8.11733 43.349 8.448C43.9143 8.768 44.373 9.23733 44.725 9.856C45.077 10.464 45.253 11.2053 45.253 12.08C45.253 12.944 45.077 13.6853 44.725 14.304C44.373 14.912 43.9143 15.3813 43.349 15.712C42.7837 16.032 42.1703 16.192 41.509 16.192ZM41.509 14.688C42.085 14.688 42.5383 14.448 42.869 13.968C43.1997 13.488 43.365 12.8587 43.365 12.08C43.365 11.2907 43.1997 10.656 42.869 10.176C42.5383 9.696 42.085 9.456 41.509 9.456C40.933 9.456 40.4797 9.696 40.149 10.176C39.829 10.656 39.669 11.2907 39.669 12.08C39.669 12.8587 39.829 13.488 40.149 13.968C40.4797 14.448 40.933 14.688 41.509 14.688ZM50.3543 16.192C49.6396 16.192 48.9943 16.032 48.4183 15.712C47.8529 15.3813 47.3996 14.912 47.0583 14.304C46.7276 13.6853 46.5623 12.944 46.5623 12.08C46.5623 11.2053 46.7436 10.464 47.1063 9.856C47.4689 9.23733 47.9489 8.768 48.5463 8.448C49.1543 8.11733 49.8049 7.952 50.4983 7.952C50.9996 7.952 51.4369 8.03733 51.8103 8.208C52.1836 8.37867 52.5143 8.58667 52.8023 8.832L51.9063 10.032C51.7036 9.85067 51.4956 9.712 51.2823 9.616C51.0689 9.50933 50.8396 9.456 50.5943 9.456C49.9649 9.456 49.4476 9.696 49.0423 10.176C48.6476 10.656 48.4503 11.2907 48.4503 12.08C48.4503 12.8587 48.6423 13.488 49.0263 13.968C49.4209 14.448 49.9276 14.688 50.5463 14.688C50.8556 14.688 51.1436 14.624 51.4103 14.496C51.6876 14.3573 51.9383 14.1973 52.1623 14.016L52.9143 15.232C52.5516 15.552 52.1463 15.792 51.6983 15.952C51.2503 16.112 50.8023 16.192 50.3543 16.192ZM57.4343 16.192C56.7089 16.192 56.0529 16.032 55.4663 15.712C54.8796 15.3813 54.4156 14.912 54.0743 14.304C53.7329 13.6853 53.5623 12.944 53.5623 12.08C53.5623 11.2267 53.7329 10.4907 54.0743 9.872C54.4263 9.25333 54.8796 8.77867 55.4343 8.448C55.9889 8.11733 56.5703 7.952 57.1783 7.952C57.8929 7.952 58.4903 8.112 58.9703 8.432C59.4503 8.74133 59.8129 9.17867 60.0583 9.744C60.3036 10.2987 60.4263 10.944 60.4263 11.68C60.4263 12.064 60.3996 12.3627 60.3463 12.576H55.3543C55.4396 13.2693 55.6903 13.808 56.1063 14.192C56.5223 14.576 57.0449 14.768 57.6743 14.768C58.0156 14.768 58.3303 14.72 58.6183 14.624C58.9169 14.5173 59.2103 14.3733 59.4983 14.192L60.1223 15.344C59.7489 15.5893 59.3329 15.792 58.8743 15.952C58.4156 16.112 57.9356 16.192 57.4343 16.192ZM55.3383 11.328H58.8263C58.8263 10.72 58.6929 10.2453 58.4263 9.904C58.1596 9.552 57.7596 9.376 57.2263 9.376C56.7676 9.376 56.3569 9.54667 55.9943 9.888C55.6423 10.2187 55.4236 10.6987 55.3383 11.328ZM64.3756 16.192C63.8423 16.192 63.309 16.0907 62.7756 15.888C62.2423 15.6747 61.7836 15.4133 61.3996 15.104L62.2636 13.92C62.6156 14.1867 62.9676 14.4 63.3196 14.56C63.6716 14.72 64.045 14.8 64.4396 14.8C64.8663 14.8 65.181 14.7093 65.3836 14.528C65.5863 14.3467 65.6876 14.1227 65.6876 13.856C65.6876 13.632 65.6023 13.4507 65.4316 13.312C65.2716 13.1627 65.0636 13.0347 64.8076 12.928C64.5516 12.8107 64.285 12.6987 64.0076 12.592C63.6663 12.464 63.325 12.3093 62.9836 12.128C62.653 11.936 62.381 11.696 62.1676 11.408C61.9543 11.1093 61.8476 10.7413 61.8476 10.304C61.8476 9.61067 62.1036 9.04533 62.6156 8.608C63.1276 8.17067 63.821 7.952 64.6956 7.952C65.2503 7.952 65.7463 8.048 66.1836 8.24C66.621 8.432 66.9996 8.65067 67.3196 8.896L66.4716 10.016C66.1943 9.81333 65.9116 9.65333 65.6236 9.536C65.3463 9.408 65.053 9.344 64.7436 9.344C64.349 9.344 64.0556 9.42933 63.8636 9.6C63.6716 9.76 63.5756 9.96267 63.5756 10.208C63.5756 10.5173 63.7356 10.752 64.0556 10.912C64.3756 11.072 64.749 11.2267 65.1756 11.376C65.5383 11.504 65.8903 11.664 66.2316 11.856C66.573 12.0373 66.8556 12.2773 67.0796 12.576C67.3143 12.8747 67.4316 13.2693 67.4316 13.76C67.4316 14.432 67.1703 15.008 66.6476 15.488C66.125 15.9573 65.3676 16.192 64.3756 16.192ZM71.2663 16.192C70.7329 16.192 70.1996 16.0907 69.6663 15.888C69.1329 15.6747 68.6743 15.4133 68.2903 15.104L69.1543 13.92C69.5063 14.1867 69.8583 14.4 70.2103 14.56C70.5623 14.72 70.9356 14.8 71.3303 14.8C71.7569 14.8 72.0716 14.7093 72.2743 14.528C72.4769 14.3467 72.5783 14.1227 72.5783 13.856C72.5783 13.632 72.4929 13.4507 72.3223 13.312C72.1623 13.1627 71.9543 13.0347 71.6983 12.928C71.4423 12.8107 71.1756 12.6987 70.8983 12.592C70.5569 12.464 70.2156 12.3093 69.8743 12.128C69.5436 11.936 69.2716 11.696 69.0583 11.408C68.8449 11.1093 68.7383 10.7413 68.7383 10.304C68.7383 9.61067 68.9943 9.04533 69.5063 8.608C70.0183 8.17067 70.7116 7.952 71.5863 7.952C72.1409 7.952 72.6369 8.048 73.0743 8.24C73.5116 8.432 73.8903 8.65067 74.2103 8.896L73.3623 10.016C73.0849 9.81333 72.8023 9.65333 72.5143 9.536C72.2369 9.408 71.9436 9.344 71.6343 9.344C71.2396 9.344 70.9463 9.42933 70.7543 9.6C70.5623 9.76 70.4663 9.96267 70.4663 10.208C70.4663 10.5173 70.6263 10.752 70.9463 10.912C71.2663 11.072 71.6396 11.2267 72.0663 11.376C72.4289 11.504 72.7809 11.664 73.1223 11.856C73.4636 12.0373 73.7463 12.2773 73.9703 12.576C74.2049 12.8747 74.3223 13.2693 74.3223 13.76C74.3223 14.432 74.0609 15.008 73.5383 15.488C73.0156 15.9573 72.2583 16.192 71.2663 16.192ZM75.9649 16V8.144H77.8049V16H75.9649ZM76.8929 6.768C76.5622 6.768 76.2955 6.672 76.0929 6.48C75.8902 6.288 75.7889 6.032 75.7889 5.712C75.7889 5.40267 75.8902 5.152 76.0929 4.96C76.2955 4.768 76.5622 4.672 76.8929 4.672C77.2235 4.672 77.4902 4.768 77.6929 4.96C77.8955 5.152 77.9969 5.40267 77.9969 5.712C77.9969 6.032 77.8955 6.288 77.6929 6.48C77.4902 6.672 77.2235 6.768 76.8929 6.768ZM80.1524 16V8.144H81.6724L81.8004 9.2H81.8644C82.2164 8.85867 82.6004 8.56533 83.0164 8.32C83.4324 8.07467 83.907 7.952 84.4404 7.952C85.283 7.952 85.8964 8.224 86.2804 8.768C86.6644 9.312 86.8564 10.08 86.8564 11.072V16H85.0164V11.312C85.0164 10.6613 84.9204 10.2027 84.7284 9.936C84.5364 9.66933 84.2217 9.536 83.7844 9.536C83.443 9.536 83.139 9.62133 82.8724 9.792C82.6164 9.952 82.323 10.192 81.9924 10.512V16H80.1524ZM91.8415 19.472C91.2228 19.472 90.6628 19.3973 90.1615 19.248C89.6708 19.0987 89.2815 18.8693 88.9935 18.56C88.7162 18.2613 88.5775 17.8827 88.5775 17.424C88.5775 16.7733 88.9508 16.2133 89.6975 15.744V15.68C89.4948 15.552 89.3242 15.3813 89.1855 15.168C89.0575 14.9547 88.9935 14.688 88.9935 14.368C88.9935 14.0587 89.0788 13.7813 89.2495 13.536C89.4308 13.28 89.6335 13.072 89.8575 12.912V12.848C89.5908 12.6453 89.3508 12.3627 89.1375 12C88.9348 11.6373 88.8335 11.2267 88.8335 10.768C88.8335 10.16 88.9775 9.648 89.2655 9.232C89.5535 8.816 89.9322 8.50133 90.4015 8.288C90.8815 8.064 91.3935 7.952 91.9375 7.952C92.1508 7.952 92.3535 7.97333 92.5455 8.016C92.7482 8.048 92.9295 8.09067 93.0895 8.144H95.9055V9.504H94.4655C94.5935 9.65333 94.7002 9.84533 94.7855 10.08C94.8708 10.304 94.9135 10.5547 94.9135 10.832C94.9135 11.408 94.7802 11.8987 94.5135 12.304C94.2468 12.6987 93.8895 12.9973 93.4415 13.2C92.9935 13.4027 92.4922 13.504 91.9375 13.504C91.7668 13.504 91.5908 13.488 91.4095 13.456C91.2282 13.424 91.0468 13.3707 90.8655 13.296C90.7482 13.4027 90.6522 13.5093 90.5775 13.616C90.5135 13.7227 90.4815 13.8667 90.4815 14.048C90.4815 14.272 90.5722 14.448 90.7535 14.576C90.9455 14.704 91.2815 14.768 91.7615 14.768H93.1535C94.1028 14.768 94.8175 14.9227 95.2975 15.232C95.7882 15.5307 96.0335 16.0213 96.0335 16.704C96.0335 17.216 95.8628 17.68 95.5215 18.096C95.1802 18.5227 94.6948 18.8587 94.0655 19.104C93.4362 19.3493 92.6948 19.472 91.8415 19.472ZM91.9375 12.352C92.3108 12.352 92.6308 12.2133 92.8975 11.936C93.1642 11.6587 93.2975 11.2693 93.2975 10.768C93.2975 10.2773 93.1642 9.89867 92.8975 9.632C92.6415 9.35467 92.3215 9.216 91.9375 9.216C91.5535 9.216 91.2282 9.34933 90.9615 9.616C90.6948 9.88267 90.5615 10.2667 90.5615 10.768C90.5615 11.2693 90.6948 11.6587 90.9615 11.936C91.2282 12.2133 91.5535 12.352 91.9375 12.352ZM92.1295 18.272C92.7588 18.272 93.2708 18.144 93.6655 17.888C94.0602 17.632 94.2575 17.3387 94.2575 17.008C94.2575 16.6987 94.1348 16.4907 93.8895 16.384C93.6548 16.2773 93.3135 16.224 92.8655 16.224H91.7935C91.3668 16.224 91.0095 16.1867 90.7215 16.112C90.3162 16.4213 90.1135 16.768 90.1135 17.152C90.1135 17.504 90.2948 17.776 90.6575 17.968C91.0202 18.1707 91.5108 18.272 92.1295 18.272Z" fill="#0092DB"/>
<path d="M4.63751 7.54972H1.48718C1.30151 7.54972 1.12345 7.47597 0.992156 7.34471C0.860867 7.21344 0.787109 7.0354 0.787109 6.84976V3.69996C0.787109 3.51432 0.860867 3.33628 0.992156 3.20501C1.12345 3.07375 1.30151 3 1.48718 3C1.67285 3 1.85092 3.07375 1.98221 3.20501C2.1135 3.33628 2.18726 3.51432 2.18726 3.69996V6.14981H4.63751C4.82318 6.14981 5.00125 6.22355 5.13254 6.35482C5.26382 6.48609 5.33758 6.66412 5.33758 6.84976C5.33758 7.0354 5.26382 7.21344 5.13254 7.34471C5.00125 7.47597 4.82318 7.54972 4.63751 7.54972Z" fill="#0092DB"/>
<path d="M13.3027 10.6986C13.1171 10.6986 12.939 10.6248 12.8077 10.4936C12.6764 10.3623 12.6027 10.1843 12.6027 9.99861C12.6032 8.76637 12.1969 7.5684 11.4469 6.5906C10.6969 5.6128 9.64506 4.90985 8.45462 4.59083C7.26419 4.27182 6.00173 4.35457 4.86314 4.82625C3.72455 5.29792 2.77351 6.13216 2.15758 7.19949C2.06456 7.36016 1.91151 7.4773 1.73211 7.52515C1.5527 7.573 1.36163 7.54763 1.20093 7.45462C1.04023 7.36162 0.923071 7.20859 0.875216 7.02922C0.827361 6.84984 0.852735 6.6588 0.945756 6.49813C1.71601 5.16418 2.90504 4.12167 4.32838 3.53233C5.75171 2.943 7.32979 2.83978 8.81778 3.2387C10.3058 3.63762 11.6205 4.51637 12.558 5.73863C13.4955 6.96088 14.0034 8.45831 14.0028 9.99861C14.0028 10.1843 13.9291 10.3623 13.7978 10.4936C13.6665 10.6248 13.4884 10.6986 13.3027 10.6986ZM12.5152 16.9982C12.3295 16.9982 12.1514 16.9244 12.0201 16.7932C11.8888 16.6619 11.8151 16.4839 11.8151 16.2982V13.8484H9.36483C9.17916 13.8484 9.00109 13.7746 8.86981 13.6434C8.73852 13.5121 8.66476 13.3341 8.66476 13.1484C8.66476 12.9628 8.73852 12.7847 8.86981 12.6535C9.00109 12.5222 9.17916 12.4485 9.36483 12.4485H12.5152C12.7008 12.4485 12.8789 12.5222 13.0102 12.6535C13.1415 12.7847 13.2152 12.9628 13.2152 13.1484V16.2982C13.2152 16.4839 13.1415 16.6619 13.0102 16.7932C12.8789 16.9244 12.7008 16.9982 12.5152 16.9982Z" fill="#0092DB"/>
<path d="M7.00073 17.0003C5.1447 16.9981 3.36533 16.2599 2.05292 14.9477C0.740512 13.6355 0.00222323 11.8565 0 10.0007C0 9.8151 0.0737574 9.63706 0.205047 9.50579C0.336336 9.37453 0.514402 9.30078 0.700073 9.30078C0.885744 9.30078 1.06381 9.37453 1.1951 9.50579C1.32639 9.63706 1.40015 9.8151 1.40015 10.0007C1.39961 11.233 1.80588 12.431 2.5559 13.4088C3.30592 14.3866 4.35776 15.0895 5.54819 15.4085C6.73862 15.7275 8.00109 15.6448 9.13968 15.1731C10.2783 14.7014 11.2293 13.8672 11.8452 12.7999C11.8913 12.7203 11.9526 12.6506 12.0256 12.5947C12.0986 12.5388 12.1819 12.4979 12.2707 12.4742C12.3595 12.4505 12.4522 12.4445 12.5433 12.4566C12.6344 12.4687 12.7223 12.4987 12.8019 12.5447C12.8815 12.5908 12.9512 12.6521 13.0071 12.725C13.0629 12.798 13.1039 12.8813 13.1276 12.9701C13.1513 13.059 13.1573 13.1516 13.1452 13.2427C13.1331 13.3338 13.1031 13.4217 13.0571 13.5012C12.4413 14.5627 11.5582 15.4443 10.4956 16.0582C9.43296 16.6722 8.22799 16.997 7.00073 17.0003Z" fill="#0092DB"/>
</svg>
