<svg width="12" height="12" viewBox="0 0 12 12" fill="none" xmlns="http://www.w3.org/2000/svg">
<path d="M6 8.91814C5.7875 8.91814 5.6095 8.84417 5.466 8.69624C5.322 8.54883 5.25 8.36597 5.25 8.14767V2.63884L3.84375 4.08347C3.69375 4.23756 3.51875 4.31461 3.31875 4.31461C3.11875 4.31461 2.9375 4.23114 2.775 4.06421C2.625 3.91011 2.55325 3.727 2.55975 3.51486C2.56575 3.30324 2.6375 3.12681 2.775 2.98555L5.475 0.211878C5.55 0.134831 5.63125 0.0801283 5.71875 0.0477687C5.80625 0.0159228 5.9 0 6 0C6.1 0 6.19375 0.0159228 6.28125 0.0477687C6.36875 0.0801283 6.45 0.134831 6.525 0.211878L9.225 2.98555C9.375 3.13965 9.44675 3.3225 9.44025 3.53413C9.43425 3.74626 9.3625 3.92295 9.225 4.06421C9.075 4.2183 8.897 4.29843 8.691 4.30459C8.4845 4.31127 8.30625 4.23756 8.15625 4.08347L6.75 2.63884V8.14767C6.75 8.36597 6.67825 8.54883 6.53475 8.69624C6.39075 8.84417 6.2125 8.91814 6 8.91814ZM1.5 12C1.0875 12 0.7345 11.8492 0.441 11.5477C0.147 11.2457 0 10.8828 0 10.4591V8.91814C0 8.69984 0.0717501 8.51673 0.21525 8.3688C0.35925 8.22138 0.5375 8.14767 0.75 8.14767C0.9625 8.14767 1.14075 8.22138 1.28475 8.3688C1.42825 8.51673 1.5 8.69984 1.5 8.91814V10.4591H10.5V8.91814C10.5 8.69984 10.572 8.51673 10.716 8.3688C10.8595 8.22138 11.0375 8.14767 11.25 8.14767C11.4625 8.14767 11.6405 8.22138 11.784 8.3688C11.928 8.51673 12 8.69984 12 8.91814V10.4591C12 10.8828 11.8533 11.2457 11.5597 11.5477C11.2657 11.8492 10.9125 12 10.5 12H1.5Z" fill="#DF1C29"/>
</svg>
