<svg width="11" height="12" viewBox="0 0 11 12" fill="none" xmlns="http://www.w3.org/2000/svg">
<path d="M1.83333 12C1.32407 12 0.891204 11.825 0.534722 11.475C0.178241 11.125 0 10.7 0 10.2V8.4H1.83333V0L2.75 0.9L3.66667 0L4.58333 0.9L5.5 0L6.41667 0.9L7.33333 0L8.25 0.9L9.16667 0L10.0833 0.9L11 0V10.2C11 10.7 10.8218 11.125 10.4653 11.475C10.1088 11.825 9.67593 12 9.16667 12H1.83333ZM9.16667 10.8C9.33982 10.8 9.48485 10.7424 9.60178 10.6272C9.71911 10.5124 9.77778 10.37 9.77778 10.2V1.8H3.05556V8.4H8.55556V10.2C8.55556 10.37 8.61422 10.5124 8.73156 10.6272C8.84848 10.7424 8.99352 10.8 9.16667 10.8ZM3.66667 4.2V3H7.33333V4.2H3.66667ZM3.66667 6V4.8H7.33333V6H3.66667ZM8.55556 4.2C8.38241 4.2 8.23737 4.1424 8.12044 4.0272C8.00311 3.9124 7.94444 3.77 7.94444 3.6C7.94444 3.43 8.00311 3.2874 8.12044 3.1722C8.23737 3.0574 8.38241 3 8.55556 3C8.7287 3 8.87374 3.0574 8.99067 3.1722C9.108 3.2874 9.16667 3.43 9.16667 3.6C9.16667 3.77 9.108 3.9124 8.99067 4.0272C8.87374 4.1424 8.7287 4.2 8.55556 4.2ZM8.55556 6C8.38241 6 8.23737 5.9424 8.12044 5.8272C8.00311 5.7124 7.94444 5.57 7.94444 5.4C7.94444 5.23 8.00311 5.0874 8.12044 4.9722C8.23737 4.8574 8.38241 4.8 8.55556 4.8C8.7287 4.8 8.87374 4.8574 8.99067 4.9722C9.108 5.0874 9.16667 5.23 9.16667 5.4C9.16667 5.57 9.108 5.7124 8.99067 5.8272C8.87374 5.9424 8.7287 6 8.55556 6ZM1.83333 10.8H7.33333V9.6H1.22222V10.2C1.22222 10.37 1.28069 10.5124 1.39761 10.6272C1.51494 10.7424 1.66019 10.8 1.83333 10.8Z" fill="#222B38"/>
</svg>
