<svg width="82" height="20" viewBox="0 0 82 20" fill="none" xmlns="http://www.w3.org/2000/svg">
<path d="M23.328 16V5.536H26.864C27.5893 5.536 28.24 5.632 28.816 5.824C29.4027 6.016 29.8613 6.34133 30.192 6.8C30.5333 7.248 30.704 7.86133 30.704 8.64C30.704 9.44 30.512 10.0853 30.128 10.576C29.7547 11.0667 29.2533 11.4187 28.624 11.632L31.12 16H29.04L26.784 11.904H25.184V16H23.328ZM25.184 10.432H26.672C27.3867 10.432 27.9307 10.2827 28.304 9.984C28.688 9.67467 28.88 9.22667 28.88 8.64C28.88 8.04267 28.688 7.62667 28.304 7.392C27.9307 7.14667 27.3867 7.024 26.672 7.024H25.184V10.432ZM35.8405 16.192C35.1152 16.192 34.4592 16.032 33.8725 15.712C33.2858 15.3813 32.8218 14.912 32.4805 14.304C32.1392 13.6853 31.9685 12.944 31.9685 12.08C31.9685 11.2267 32.1392 10.4907 32.4805 9.872C32.8325 9.25333 33.2858 8.77867 33.8405 8.448C34.3952 8.11733 34.9765 7.952 35.5845 7.952C36.2992 7.952 36.8965 8.112 37.3765 8.432C37.8565 8.74133 38.2192 9.17867 38.4645 9.744C38.7098 10.2987 38.8325 10.944 38.8325 11.68C38.8325 12.064 38.8058 12.3627 38.7525 12.576H33.7605C33.8458 13.2693 34.0965 13.808 34.5125 14.192C34.9285 14.576 35.4512 14.768 36.0805 14.768C36.4218 14.768 36.7365 14.72 37.0245 14.624C37.3232 14.5173 37.6165 14.3733 37.9045 14.192L38.5285 15.344C38.1552 15.5893 37.7392 15.792 37.2805 15.952C36.8218 16.112 36.3418 16.192 35.8405 16.192ZM33.7445 11.328H37.2325C37.2325 10.72 37.0992 10.2453 36.8325 9.904C36.5658 9.552 36.1658 9.376 35.6325 9.376C35.1738 9.376 34.7632 9.54667 34.4005 9.888C34.0485 10.2187 33.8298 10.6987 33.7445 11.328ZM39.9659 19.296C39.6779 19.296 39.4325 19.2747 39.2299 19.232C39.0165 19.1893 38.8352 19.1413 38.6859 19.088L39.0379 17.712C39.1445 17.744 39.2565 17.7707 39.3739 17.792C39.4805 17.824 39.5925 17.84 39.7099 17.84C40.0619 17.84 40.2965 17.7173 40.4139 17.472C40.5419 17.2373 40.6059 16.8907 40.6059 16.432V8.144H42.4619V16.4C42.4619 16.9547 42.3819 17.4507 42.2219 17.888C42.0619 18.3253 41.8005 18.6667 41.4379 18.912C41.0752 19.168 40.5845 19.296 39.9659 19.296ZM41.5339 6.768C41.2032 6.768 40.9365 6.672 40.7339 6.48C40.5312 6.288 40.4299 6.032 40.4299 5.712C40.4299 5.40267 40.5312 5.152 40.7339 4.96C40.9365 4.768 41.2032 4.672 41.5339 4.672C41.8645 4.672 42.1312 4.768 42.3339 4.96C42.5365 5.152 42.6379 5.40267 42.6379 5.712C42.6379 6.032 42.5365 6.288 42.3339 6.48C42.1312 6.672 41.8645 6.768 41.5339 6.768ZM48.153 16.192C47.4277 16.192 46.7717 16.032 46.185 15.712C45.5983 15.3813 45.1343 14.912 44.793 14.304C44.4517 13.6853 44.281 12.944 44.281 12.08C44.281 11.2267 44.4517 10.4907 44.793 9.872C45.145 9.25333 45.5983 8.77867 46.153 8.448C46.7077 8.11733 47.289 7.952 47.897 7.952C48.6117 7.952 49.209 8.112 49.689 8.432C50.169 8.74133 50.5317 9.17867 50.777 9.744C51.0223 10.2987 51.145 10.944 51.145 11.68C51.145 12.064 51.1183 12.3627 51.065 12.576H46.073C46.1583 13.2693 46.409 13.808 46.825 14.192C47.241 14.576 47.7637 14.768 48.393 14.768C48.7343 14.768 49.049 14.72 49.337 14.624C49.6357 14.5173 49.929 14.3733 50.217 14.192L50.841 15.344C50.4677 15.5893 50.0517 15.792 49.593 15.952C49.1343 16.112 48.6543 16.192 48.153 16.192ZM46.057 11.328H49.545C49.545 10.72 49.4117 10.2453 49.145 9.904C48.8783 9.552 48.4783 9.376 47.945 9.376C47.4863 9.376 47.0757 9.54667 46.713 9.888C46.361 10.2187 46.1423 10.6987 46.057 11.328ZM56.1824 16.192C55.4677 16.192 54.8224 16.032 54.2464 15.712C53.681 15.3813 53.2277 14.912 52.8864 14.304C52.5557 13.6853 52.3904 12.944 52.3904 12.08C52.3904 11.2053 52.5717 10.464 52.9344 9.856C53.297 9.23733 53.777 8.768 54.3744 8.448C54.9824 8.11733 55.633 7.952 56.3264 7.952C56.8277 7.952 57.265 8.03733 57.6384 8.208C58.0117 8.37867 58.3424 8.58667 58.6304 8.832L57.7344 10.032C57.5317 9.85067 57.3237 9.712 57.1104 9.616C56.897 9.50933 56.6677 9.456 56.4224 9.456C55.793 9.456 55.2757 9.696 54.8704 10.176C54.4757 10.656 54.2784 11.2907 54.2784 12.08C54.2784 12.8587 54.4704 13.488 54.8544 13.968C55.249 14.448 55.7557 14.688 56.3744 14.688C56.6837 14.688 56.9717 14.624 57.2384 14.496C57.5157 14.3573 57.7664 14.1973 57.9904 14.016L58.7424 15.232C58.3797 15.552 57.9744 15.792 57.5264 15.952C57.0784 16.112 56.6304 16.192 56.1824 16.192ZM62.9048 16.192C61.9981 16.192 61.3528 15.9307 60.9688 15.408C60.5954 14.8747 60.4088 14.1867 60.4088 13.344V9.6H59.2888V8.224L60.5048 8.144L60.7288 6H62.2648V8.144H64.2648V9.6H62.2648V13.344C62.2648 14.2613 62.6328 14.72 63.3688 14.72C63.5074 14.72 63.6514 14.704 63.8008 14.672C63.9501 14.6293 64.0781 14.5867 64.1848 14.544L64.5048 15.904C64.2914 15.9787 64.0461 16.0427 63.7688 16.096C63.5021 16.16 63.2141 16.192 62.9048 16.192ZM69.028 16.192C68.3027 16.192 67.6467 16.032 67.06 15.712C66.4733 15.3813 66.0093 14.912 65.668 14.304C65.3267 13.6853 65.156 12.944 65.156 12.08C65.156 11.2267 65.3267 10.4907 65.668 9.872C66.02 9.25333 66.4733 8.77867 67.028 8.448C67.5827 8.11733 68.164 7.952 68.772 7.952C69.4867 7.952 70.084 8.112 70.564 8.432C71.044 8.74133 71.4067 9.17867 71.652 9.744C71.8973 10.2987 72.02 10.944 72.02 11.68C72.02 12.064 71.9933 12.3627 71.94 12.576H66.948C67.0333 13.2693 67.284 13.808 67.7 14.192C68.116 14.576 68.6387 14.768 69.268 14.768C69.6093 14.768 69.924 14.72 70.212 14.624C70.5107 14.5173 70.804 14.3733 71.092 14.192L71.716 15.344C71.3427 15.5893 70.9267 15.792 70.468 15.952C70.0093 16.112 69.5293 16.192 69.028 16.192ZM66.932 11.328H70.42C70.42 10.72 70.2867 10.2453 70.02 9.904C69.7533 9.552 69.3533 9.376 68.82 9.376C68.3613 9.376 67.9507 9.54667 67.588 9.888C67.236 10.2187 67.0173 10.6987 66.932 11.328ZM76.5294 16.192C75.548 16.192 74.764 15.8293 74.1774 15.104C73.5907 14.3787 73.2974 13.3707 73.2974 12.08C73.2974 11.2267 73.452 10.4907 73.7614 9.872C74.0814 9.25333 74.4974 8.77867 75.0094 8.448C75.5214 8.11733 76.06 7.952 76.6254 7.952C77.0734 7.952 77.452 8.032 77.7614 8.192C78.0814 8.34133 78.3907 8.54933 78.6894 8.816L78.6254 7.552V4.704H80.4654V16H78.9454L78.8174 15.152H78.7534C78.4654 15.44 78.1294 15.6853 77.7454 15.888C77.3614 16.0907 76.956 16.192 76.5294 16.192ZM76.9774 14.672C77.564 14.672 78.1134 14.3787 78.6254 13.792V10.128C78.3587 9.88267 78.092 9.712 77.8254 9.616C77.5587 9.52 77.292 9.472 77.0254 9.472C76.524 9.472 76.092 9.70133 75.7294 10.16C75.3774 10.608 75.2014 11.2427 75.2014 12.064C75.2014 12.9067 75.356 13.552 75.6654 14C75.9747 14.448 76.412 14.672 76.9774 14.672Z" fill="#FF4D58"/>
<path d="M7 3C10.871 3 14 6.129 14 10C14 13.871 10.871 17 7 17C3.129 17 0 13.871 0 10C0 6.129 3.129 3 7 3ZM9.513 6.5L7 9.013L4.487 6.5L3.5 7.487L6.013 10L3.5 12.513L4.487 13.5L7 10.987L9.513 13.5L10.5 12.513L7.987 10L10.5 7.487L9.513 6.5Z" fill="#FF4D58"/>
</svg>
