<svg width="72" height="20" viewBox="0 0 72 20" fill="none" xmlns="http://www.w3.org/2000/svg">
<path d="M23.328 16V5.536H26.864C27.5893 5.536 28.24 5.632 28.816 5.824C29.4027 6.016 29.8613 6.34133 30.192 6.8C30.5333 7.248 30.704 7.86133 30.704 8.64C30.704 9.44 30.512 10.0853 30.128 10.576C29.7547 11.0667 29.2533 11.4187 28.624 11.632L31.12 16H29.04L26.784 11.904H25.184V16H23.328ZM25.184 10.432H26.672C27.3867 10.432 27.9307 10.2827 28.304 9.984C28.688 9.67467 28.88 9.22667 28.88 8.64C28.88 8.04267 28.688 7.62667 28.304 7.392C27.9307 7.14667 27.3867 7.024 26.672 7.024H25.184V10.432ZM35.8405 16.192C35.1152 16.192 34.4592 16.032 33.8725 15.712C33.2858 15.3813 32.8218 14.912 32.4805 14.304C32.1392 13.6853 31.9685 12.944 31.9685 12.08C31.9685 11.2267 32.1392 10.4907 32.4805 9.872C32.8325 9.25333 33.2858 8.77867 33.8405 8.448C34.3952 8.11733 34.9765 7.952 35.5845 7.952C36.2992 7.952 36.8965 8.112 37.3765 8.432C37.8565 8.74133 38.2192 9.17867 38.4645 9.744C38.7098 10.2987 38.8325 10.944 38.8325 11.68C38.8325 12.064 38.8058 12.3627 38.7525 12.576H33.7605C33.8458 13.2693 34.0965 13.808 34.5125 14.192C34.9285 14.576 35.4512 14.768 36.0805 14.768C36.4218 14.768 36.7365 14.72 37.0245 14.624C37.3232 14.5173 37.6165 14.3733 37.9045 14.192L38.5285 15.344C38.1552 15.5893 37.7392 15.792 37.2805 15.952C36.8218 16.112 36.3418 16.192 35.8405 16.192ZM33.7445 11.328H37.2325C37.2325 10.72 37.0992 10.2453 36.8325 9.904C36.5658 9.552 36.1658 9.376 35.6325 9.376C35.1738 9.376 34.7632 9.54667 34.4005 9.888C34.0485 10.2187 33.8298 10.6987 33.7445 11.328ZM42.3499 16L39.6139 8.144H41.4859L42.7339 12.224C42.8405 12.608 42.9472 12.9973 43.0539 13.392C43.1712 13.7867 43.2832 14.1867 43.3899 14.592H43.4539C43.5712 14.1867 43.6832 13.7867 43.7899 13.392C43.9072 12.9973 44.0192 12.608 44.1259 12.224L45.3739 8.144H47.1499L44.4779 16H42.3499ZM48.5118 16V8.144H50.3518V16H48.5118ZM49.4398 6.768C49.1091 6.768 48.8424 6.672 48.6398 6.48C48.4371 6.288 48.3358 6.032 48.3358 5.712C48.3358 5.40267 48.4371 5.152 48.6398 4.96C48.8424 4.768 49.1091 4.672 49.4398 4.672C49.7704 4.672 50.0371 4.768 50.2398 4.96C50.4424 5.152 50.5438 5.40267 50.5438 5.712C50.5438 6.032 50.4424 6.288 50.2398 6.48C50.0371 6.672 49.7704 6.768 49.4398 6.768ZM56.0593 16.192C55.3339 16.192 54.6779 16.032 54.0913 15.712C53.5046 15.3813 53.0406 14.912 52.6993 14.304C52.3579 13.6853 52.1873 12.944 52.1873 12.08C52.1873 11.2267 52.3579 10.4907 52.6993 9.872C53.0513 9.25333 53.5046 8.77867 54.0593 8.448C54.6139 8.11733 55.1953 7.952 55.8033 7.952C56.5179 7.952 57.1153 8.112 57.5953 8.432C58.0753 8.74133 58.4379 9.17867 58.6833 9.744C58.9286 10.2987 59.0513 10.944 59.0513 11.68C59.0513 12.064 59.0246 12.3627 58.9713 12.576H53.9793C54.0646 13.2693 54.3153 13.808 54.7313 14.192C55.1473 14.576 55.6699 14.768 56.2993 14.768C56.6406 14.768 56.9553 14.72 57.2433 14.624C57.5419 14.5173 57.8353 14.3733 58.1233 14.192L58.7473 15.344C58.3739 15.5893 57.9579 15.792 57.4993 15.952C57.0406 16.112 56.5606 16.192 56.0593 16.192ZM53.9633 11.328H57.4513C57.4513 10.72 57.3179 10.2453 57.0513 9.904C56.7846 9.552 56.3846 9.376 55.8513 9.376C55.3926 9.376 54.9819 9.54667 54.6193 9.888C54.2673 10.2187 54.0486 10.6987 53.9633 11.328ZM62.1046 16L60.0246 8.144H61.8806L62.8246 12.224C62.91 12.5973 62.9793 12.9707 63.0326 13.344C63.0966 13.7173 63.166 14.096 63.2406 14.48H63.3046C63.3793 14.096 63.454 13.7173 63.5286 13.344C63.614 12.96 63.7046 12.5867 63.8006 12.224L64.8246 8.144H66.5046L67.5446 12.224C67.6406 12.5973 67.7313 12.9707 67.8166 13.344C67.902 13.7173 67.9873 14.096 68.0726 14.48H68.1366C68.2113 14.096 68.2806 13.7173 68.3446 13.344C68.4086 12.9707 68.478 12.5973 68.5526 12.224L69.4966 8.144H71.2246L69.2246 16H67.0326L66.1206 12.336C66.0353 11.9627 65.9553 11.5947 65.8806 11.232C65.806 10.8587 65.726 10.464 65.6406 10.048H65.5766C65.502 10.464 65.4273 10.8587 65.3526 11.232C65.278 11.6053 65.198 11.9787 65.1126 12.352L64.2166 16H62.1046Z" fill="#FAA94D"/>
<path d="M12.6 5H1.4C0.63 5 0.00699999 5.63 0.00699999 6.4L0 19L2.8 16.2H12.6C13.37 16.2 14 15.57 14 14.8V6.4C14 5.63 13.37 5 12.6 5ZM12.6 14.8H2.219L1.806 15.213L1.4 15.619V6.4H12.6V14.8ZM5.95 13.4H11.2V12H7.35L5.95 13.4ZM8.652 9.291C8.792 9.151 8.792 8.934 8.652 8.794L7.413 7.555C7.273 7.415 7.056 7.415 6.916 7.555L2.8 11.671V13.4H4.529L8.652 9.291Z" fill="#FAA94D"/>
</svg>
