<svg width="11" height="14" viewBox="0 0 11 14" fill="none" xmlns="http://www.w3.org/2000/svg">
<path d="M1 0.95H0.95V1V13V13.05H1H10H10.05V13V4.04615V4.02581L10.0358 4.01125L9.9008 3.87279L7.2008 1.10356L7.0658 0.965095L7.05108 0.95H7.03H1ZM6.4 4.74231H9.05V12.0269H1.95V1.97308H6.35V4.69231V4.74231H6.4ZM2.8 5.56538H2.75V5.61538V6.53846V6.58846H2.8H8.2H8.25V6.53846V5.61538V5.56538H8.2H2.8ZM2.8 7.87308H2.75V7.92308V8.84615V8.89615H2.8H5.95H6V8.84615V7.92308V7.87308H5.95H2.8ZM6.85 7.87308H6.8V7.92308V8.84615V8.89615H6.85H8.2H8.25V8.84615V7.92308V7.87308H8.2H6.85ZM2.8 9.71923H2.75V9.76923V10.6923V10.7423H2.8H5.95H6V10.6923V9.76923V9.71923H5.95H2.8ZM6.85 9.71923H6.8V9.76923V10.6923V10.7423H6.85H8.2H8.25V10.6923V9.76923V9.71923H8.2H6.85ZM7.35 3.71923V2.69214L8.35142 3.71923H7.35Z" fill="#222B38" stroke="#222B38" stroke-width="0.1"/>
</svg>
