<svg width="18" height="18" viewBox="0 0 18 18" fill="#727B8E" xmlns="http://www.w3.org/2000/svg">
<path d="M17.08 14.7854H15.7943V13.4997H16.4372V10.9283H13.8658V11.5711H12.5801V10.2854C12.5801 10.1149 12.6478 9.95142 12.7684 9.83086C12.8889 9.71031 13.0524 9.64258 13.2229 9.64258H17.08C17.2505 9.64258 17.414 9.71031 17.5346 9.83086C17.6552 9.95142 17.7229 10.1149 17.7229 10.2854V14.1425C17.7229 14.313 17.6552 14.4765 17.5346 14.5971C17.414 14.7177 17.2505 14.7854 17.08 14.7854Z" />
<path d="M13.8671 17.9996H10.01C9.83951 17.9996 9.67599 17.9319 9.55544 17.8113C9.43488 17.6908 9.36715 17.5273 9.36715 17.3568V13.4997C9.36715 13.3292 9.43488 13.1657 9.55544 13.0451C9.67599 12.9245 9.83951 12.8568 10.01 12.8568H13.8671C14.0376 12.8568 14.2011 12.9245 14.3217 13.0451C14.4422 13.1657 14.51 13.3292 14.51 13.4997V17.3568C14.51 17.5273 14.4422 17.6908 14.3217 17.8113C14.2011 17.9319 14.0376 17.9996 13.8671 17.9996ZM10.6529 16.7139H13.2243V14.1425H10.6529V16.7139ZM8.08145 11.4798C7.61695 11.3588 7.1957 11.1099 6.86554 10.7615C6.53537 10.413 6.30952 9.979 6.21363 9.50866C6.11774 9.03832 6.15565 8.55052 6.32306 8.10064C6.49047 7.65077 6.78067 7.25685 7.16071 6.96362C7.54074 6.67038 7.99538 6.48958 8.47301 6.44175C8.95063 6.39391 9.4321 6.48096 9.86274 6.69301C10.2934 6.90506 10.6559 7.2336 10.9092 7.64135C11.1625 8.04909 11.2964 8.51968 11.2957 8.99969H12.5814C12.5822 8.26415 12.3726 7.54372 11.9774 6.92336C11.5821 6.30301 11.0178 5.80859 10.3508 5.49841C9.6839 5.18823 8.94217 5.07522 8.21311 5.1727C7.48405 5.27018 6.79806 5.5741 6.23604 6.04861C5.67401 6.52312 5.25938 7.14844 5.04104 7.85083C4.8227 8.55322 4.80975 9.30341 5.00371 10.0129C5.19768 10.7224 5.59048 11.3617 6.13579 11.8553C6.6811 12.3489 7.35618 12.6764 8.08145 12.7989V11.4798Z"/>
<path d="M17.0108 7.42494L15.5258 8.72993L14.613 7.81708L16.1623 6.45423L14.6451 3.8314L12.4337 4.57711C11.9157 4.14592 11.329 3.80476 10.698 3.56783L10.2416 1.2857H7.20734L6.75092 3.56783C6.11488 3.79813 5.52496 4.1399 5.00879 4.57711L2.80381 3.8314L1.28668 6.45423L3.03523 7.99065C2.9163 8.65609 2.9163 9.33734 3.03523 10.0028L1.28668 11.5456L2.80381 14.1685L5.01522 13.4227C5.53323 13.8539 6.11995 14.1951 6.75092 14.432L7.20734 16.7142H8.08162V17.9999H7.20734C6.91005 17.9996 6.62202 17.8964 6.39229 17.7077C6.16256 17.5189 6.00533 17.2565 5.94735 16.9649L5.6195 15.3449C5.32845 15.2029 5.04713 15.0419 4.77736 14.8627L3.21523 15.3899C3.0824 15.4331 2.9435 15.4548 2.80381 15.4542C2.57799 15.4557 2.35585 15.397 2.16034 15.2839C1.96483 15.1709 1.80304 15.0078 1.69167 14.8113L0.174544 12.1885C0.0244935 11.9307 -0.0312645 11.6288 0.0168193 11.3344C0.0649031 11.04 0.213837 10.7715 0.438113 10.5749L1.67239 9.49492C1.65953 9.32778 1.6531 9.16707 1.6531 8.99993C1.6531 8.83279 1.66596 8.67207 1.67882 8.51136L0.438113 7.42494C0.213837 7.22831 0.0649031 6.95982 0.0168193 6.66545C-0.0312645 6.37109 0.0244935 6.06916 0.174544 5.81138L1.69167 3.18855C1.80304 2.99209 1.96483 2.82893 2.16034 2.71592C2.35585 2.6029 2.57799 2.54414 2.80381 2.54569C2.9435 2.54505 3.0824 2.56675 3.21523 2.60998L4.77094 3.13712C5.0429 2.95796 5.32637 2.79689 5.6195 2.65498L5.94735 1.03499C6.00533 0.743401 6.16256 0.480913 6.39229 0.292206C6.62202 0.1035 6.91005 0.000238821 7.20734 0H10.2416C10.5389 0.000238821 10.8269 0.1035 11.0567 0.292206C11.2864 0.480913 11.4436 0.743401 11.5016 1.03499L11.8295 2.65498C12.1205 2.79693 12.4018 2.958 12.6716 3.13712L14.2337 2.60998C14.3666 2.56675 14.5054 2.54505 14.6451 2.54569C14.871 2.54414 15.0931 2.6029 15.2886 2.71592C15.4841 2.82893 15.6459 2.99209 15.7573 3.18855L17.2744 5.81138C17.4245 6.06916 17.4802 6.37109 17.4321 6.66545C17.384 6.95982 17.2351 7.22831 17.0108 7.42494Z"/>
</svg>
